<?xml version="1.0" encoding="UTF-8" standalone="no"?>
<svg
   width="512"
   height="192"
   viewBox="0 0 512.00001 191.99999"
   version="1.1"
   id="svg1"
   sodipodi:docname="_chiyoyuki=__.svg"
   inkscape:version="1.4.2 (ebf0e940d0, 2025-05-08)"
   xmlns:inkscape="http://www.inkscape.org/namespaces/inkscape"
   xmlns:sodipodi="http://sodipodi.sourceforge.net/DTD/sodipodi-0.dtd"
   xmlns="http://www.w3.org/2000/svg"
   xmlns:svg="http://www.w3.org/2000/svg">
  <defs
     id="defs1" />
  <sodipodi:namedview
     id="namedview1"
     pagecolor="#ffffff"
     bordercolor="#000000"
     borderopacity="0.25"
     inkscape:showpageshadow="2"
     inkscape:pageopacity="0.0"
     inkscape:pagecheckerboard="0"
     inkscape:deskcolor="#d1d1d1"
     inkscape:zoom="1.222044"
     inkscape:cx="215.62234"
     inkscape:cy="75.283703"
     inkscape:window-width="1588"
     inkscape:window-height="843"
     inkscape:window-x="0"
     inkscape:window-y="0"
     inkscape:window-maximized="1"
     inkscape:current-layer="svgGroup" />
  <g
     id="svgGroup"
     stroke-linecap="round"
     fill-rule="evenodd"
     font-size="12px"
     stroke="#000"
     stroke-width="2"
     fill="none"
     style="fill:none;stroke:#000000;stroke-width:2">
    <path
       d="m 77.121,105.022 a 42.802,42.802 0 0 0 1.567,-2.113 8323.278,8323.278 0 0 0 0,2.029 v 3.937 q 0,2.188 1.031,3.719 1.031,1.531 2.969,1.531 1.062,0 2.406,-0.906 1.344,-0.906 2.656,-3.531 0.688,-1.375 1.75,-3.469 1.063,-2.094 2.375,-4.406 1.313,-2.313 2.719,-4.656 1.406,-2.344 2.812,-4.219 1.407,-1.875 2.688,-3.031 1.281,-1.157 2.281,-1.157 0.688,0 1.219,0.688 0.531,0.687 0.531,2.625 0,0.75 -0.094,1.844 -0.093,1.093 -0.218,2.343 -0.125,1.25 -0.219,2.532 -0.094,1.281 -0.094,2.406 0,2.187 0.344,4.5 0.344,2.312 1.312,4.187 0.969,1.875 2.719,3.094 1.75,1.219 4.625,1.219 2.5,0 4.781,-1.219 2.282,-1.219 4.25,-3.125 1.969,-1.906 3.594,-4.156 a 64.35,64.35 0 0 0 1.253,-1.797 51.643,51.643 0 0 0 0.38,-0.573 21.846,21.846 0 0 0 0.586,3.214 q 0.719,2.718 2.187,4.718 1.469,2 3.594,3.188 2.125,1.187 4.938,1.187 2.187,0 4.312,-1.062 2.125,-1.063 4.063,-2.781 1.937,-1.719 3.656,-3.875 a 58.643,58.643 0 0 0 2.937,-4.014 16.059,16.059 0 0 0 0.497,2.675 10.739,10.739 0 0 0 2.097,4.057 q 2.688,3.188 7.438,3.188 2.875,0 5.281,-1.75 2.406,-1.75 4.031,-4.625 -0.187,2.75 -0.344,5.969 -0.156,3.218 -0.281,6.218 -2.25,2.625 -4.437,5.844 -2.188,3.219 -4.125,6.781 -1.938,3.563 -3.594,7.313 -1.656,3.75 -2.844,7.406 -1.187,3.656 -1.844,7.094 -0.656,3.437 -0.656,6.437 0,5.5 2.375,8.563 2.375,3.062 6.813,3.062 2.687,0 4.687,-1.343 2,-1.344 3.5,-3.688 1.5,-2.344 2.469,-5.531 0.969,-3.188 1.531,-6.844 0.563,-3.656 0.813,-7.656 0.25,-4 0.25,-8 0,-4.875 -0.25,-9.219 -0.25,-4.344 0,-8.656 2.562,-2.875 5.375,-5.719 2.812,-2.844 5.562,-5.875 a 83.455,83.455 0 0 0 4.566,-5.494 14.997,14.997 0 0 0 0.684,2.369 q 1,2.594 2.813,4.438 1.812,1.843 4.25,2.875 2.437,1.031 5.375,1.031 2.5,0 4.625,-0.688 2.125,-0.687 3.843,-1.875 1.719,-1.187 3.032,-2.781 1.312,-1.594 2.25,-3.469 1.187,0.25 2.75,0.25 2.937,0.063 5.312,-0.687 2.375,-0.75 4.281,-2.031 a 15.214,15.214 0 0 0 1.537,-1.173 21.369,21.369 0 0 0 0.032,0.787 q 0.278,4.665 2.65,7.479 2.688,3.188 7.438,3.188 2.875,0 5.281,-1.75 2.406,-1.75 4.031,-4.625 -0.187,2.75 -0.344,5.969 -0.156,3.218 -0.281,6.218 -2.25,2.625 -4.437,5.844 -2.188,3.219 -4.125,6.781 -1.938,3.563 -3.594,7.313 -1.656,3.75 -2.844,7.406 -1.187,3.656 -1.844,7.094 Q 234,157.5 234,160.5 q 0,5.5 2.375,8.563 2.375,3.062 6.813,3.062 2.687,0 4.687,-1.343 2,-1.344 3.5,-3.688 1.5,-2.344 2.469,-5.531 0.969,-3.188 1.531,-6.844 0.563,-3.656 0.813,-7.656 0.25,-4 0.25,-8 0,-4.875 -0.25,-9.219 -0.25,-4.344 0,-8.656 2.562,-2.875 5.375,-5.719 2.812,-2.844 5.562,-5.875 a 83.455,83.455 0 0 0 4.973,-6.034 19.442,19.442 0 0 0 0.03,0.276 14.865,14.865 0 0 0 0.591,2.789 q 0.719,2.25 2.094,3.844 1.375,1.594 3.25,2.469 1.875,0.875 4.25,0.875 2.937,0 5.843,-2.063 2.907,-2.062 5.094,-5.625 1.188,3.875 3.625,5.969 2.438,2.094 6.125,2.094 2.688,0 5.031,-1.219 2.344,-1.219 4.344,-3.125 2,-1.906 3.625,-4.156 a 54.017,54.017 0 0 0 1.508,-2.195 41.741,41.741 0 0 0 0.042,-0.065 q -0.053,3.461 -0.081,5.697 -0.031,2.5 -0.031,2.875 0,1.875 0.875,2.657 0.875,0.781 1.812,0.781 1,0 1.625,-0.469 0.625,-0.469 1.063,-1.187 0.437,-0.719 0.656,-1.532 0.219,-0.812 0.406,-1.5 0.563,-2.25 1.438,-4.906 0.875,-2.656 2.031,-5.344 1.156,-2.687 2.531,-5.156 1.375,-2.469 2.906,-4.375 1.532,-1.906 3.157,-3.062 1.625,-1.157 3.312,-1.157 1.625,0 2.75,1.063 1.125,1.062 1.125,2.75 0,1.937 -0.875,3.594 -0.875,1.656 -2.437,3.031 -1.563,1.375 -3.719,2.469 -2.156,1.093 -4.719,1.843 -0.937,0.313 -1.469,0.782 -0.531,0.468 -0.812,1 -0.281,0.531 -0.344,0.968 -0.062,0.438 -0.062,0.688 0,1.937 1.031,3.781 1.031,1.844 2.812,3.313 1.782,1.468 4.25,2.343 2.469,0.875 5.282,0.875 3.562,0 6.968,-1.343 3.407,-1.344 6.532,-3.875 3.125,-2.532 5.812,-6.125 a 43.692,43.692 0 0 0 0.775,-1.072 21.846,21.846 0 0 0 0.631,3.697 q 0.719,2.718 2.188,4.718 1.469,2 3.594,3.188 2.125,1.187 4.937,1.187 2.188,0 4.313,-1.062 2.125,-1.063 4.062,-2.781 1.938,-1.719 3.656,-3.875 1.719,-2.157 3.157,-4.344 1.437,-2.188 2.562,-4.25 1.125,-2.063 1.875,-3.5 0.25,-0.438 0.25,-1.063 0,-0.875 -0.656,-1.625 -0.656,-0.75 -1.656,-0.75 -0.688,0 -1.25,0.344 -0.563,0.344 -0.875,0.969 -1.938,3.875 -3.938,7.031 -2,3.156 -3.969,5.406 -1.968,2.25 -3.843,3.5 -1.875,1.25 -3.625,1.25 -1.063,0 -2.219,-0.375 -1.156,-0.375 -2.188,-1.5 -1.031,-1.125 -1.687,-3.156 -0.656,-2.031 -0.656,-5.344 0,-2.437 0.156,-5.343 0.156,-2.907 0.375,-5.5 0.219,-2.594 0.375,-4.469 0.156,-1.875 0.156,-2.25 0,-0.938 -0.625,-1.656 -0.625,-0.719 -1.562,-0.719 -1.063,0 -1.719,0.656 -0.656,0.656 -0.781,1.531 A 143.488,143.488 0 0 0 362.252,93.308 2.587,2.587 0 0 0 362,93.75 q -2.937,6.25 -6.062,9.688 -3.125,3.437 -5.907,5.031 -2.781,1.594 -4.906,1.875 -2.125,0.281 -3.062,0.281 -3.063,0 -5.5,-1.406 -2.438,-1.406 -3.5,-3.781 2.812,-0.875 5.468,-2.25 2.657,-1.375 4.719,-3.219 2.063,-1.844 3.313,-4.187 1.25,-2.344 1.25,-5.157 0,-1.812 -0.657,-3.375 -0.656,-1.562 -1.812,-2.718 -1.156,-1.157 -2.719,-1.813 -1.562,-0.656 -3.375,-0.656 -3.25,0 -5.906,1.937 -2.656,1.938 -4.781,4.938 -2.125,3 -3.688,6.531 -1.562,3.531 -2.562,6.719 0.062,-4.125 0.125,-9.5 0.062,-5.375 0.156,-11.313 0.094,-5.937 0.187,-12.187 0.094,-6.25 0.188,-12.156 0.094,-5.907 0.187,-11.157 0.094,-5.25 0.157,-9.187 0.062,-3.938 0.093,-6.281 0.032,-2.344 0.032,-2.469 0,-1.063 -0.688,-1.719 -0.687,-0.656 -1.687,-0.656 -0.875,0 -1.625,0.656 -0.75,0.656 -0.75,1.656 0,0.5 -0.032,3.094 -0.031,2.594 -0.093,6.688 -0.063,4.093 -0.157,9.375 -0.093,5.281 -0.156,11.156 -0.062,5.875 -0.187,12.062 -0.125,6.188 -0.188,12.032 a 1659.934,1659.934 0 0 1 -0.07,5.687 1401.261,1401.261 0 0 1 -0.083,5.193 2.287,2.287 0 0 0 -0.008,0.01 2.707,2.707 0 0 0 -0.401,0.641 q -0.5,1.125 -1.25,2.719 -0.75,1.593 -1.782,3.343 -1.031,1.75 -2.25,3.469 -1.218,1.719 -2.656,3.094 -1.437,1.375 -3,2.219 -1.562,0.843 -3.187,0.843 -2.25,0 -3.625,-1.468 -1.375,-1.469 -2.063,-3.532 -0.687,-2.062 -0.906,-4.187 -0.219,-2.125 -0.094,-3.438 L 297.313,86.5 q 0,-1 -0.625,-1.781 -0.625,-0.781 -1.688,-0.781 -0.937,0 -1.625,0.625 -0.687,0.625 -0.812,1.562 l -0.938,10.75 q -0.312,3.125 -1.375,5.438 -1.062,2.312 -2.469,3.812 -1.406,1.5 -2.875,2.219 -1.468,0.719 -2.593,0.719 -2.688,0 -4.157,-1.906 -1.468,-1.907 -1.468,-5.594 0,-3.25 0.562,-5.781 0.563,-2.532 1.313,-4.407 0.75,-1.875 1.437,-3.031 0.688,-1.156 1,-1.719 0.188,-0.375 0.344,-0.75 0.156,-0.375 0.156,-0.75 0,-0.937 -0.656,-1.656 -0.656,-0.719 -1.656,-0.719 -0.5,0 -0.969,0.188 -0.469,0.187 -0.781,0.562 l -0.875,1.188 q -0.875,1.187 -1.875,3.469 -0.625,1.425 -1.189,3.278 a 48.987,48.987 0 0 0 -0.432,1.515 2.072,2.072 0 0 0 -0.219,0.231 2.587,2.587 0 0 0 -0.348,0.569 q -1.437,3.063 -3.281,5.782 -1.844,2.718 -3.969,5.218 -2.125,2.5 -4.375,4.782 -2.25,2.281 -4.437,4.468 0.25,-5.062 0.625,-9.531 0.375,-4.469 0.718,-7.844 0.344,-3.375 0.594,-5.406 0.25,-2.031 0.25,-2.219 0,-1 -0.687,-1.687 -0.688,-0.688 -1.688,-0.688 -0.875,0 -1.5,0.532 -0.625,0.531 -0.75,1.343 -2,10.063 -4.875,15.344 -2.875,5.281 -6.437,5.281 -2.813,0 -4.063,-1.937 -1.25,-1.938 -1.25,-5.375 0,-3.438 0.656,-6.313 0.657,-2.875 1.438,-4.937 0.781,-2.063 1.437,-3.156 0.657,-1.094 0.594,-1.032 0.375,-0.562 0.375,-1.25 0,-0.937 -0.656,-1.656 -0.656,-0.719 -1.719,-0.719 -1.25,0 -1.937,1.063 0,-0.063 -0.75,1.219 -0.75,1.281 -1.657,3.687 -0.566,1.504 -1.084,3.374 a 60.677,60.677 0 0 0 -0.224,0.838 3.114,3.114 0 0 0 -0.037,0.027 q -0.312,0.233 -0.436,0.48 -1,2.062 -2.094,3.625 -1.093,1.562 -2.468,2.562 -1.375,1 -3.063,1.5 -1.687,0.5 -3.812,0.5 h -0.813 q -0.375,0 -0.75,-0.062 0.5,-2.188 0.5,-4.188 0,-3.812 -0.687,-6.562 -0.688,-2.75 -1.844,-4.5 -1.156,-1.75 -2.656,-2.563 -1.5,-0.812 -3.188,-0.812 -2.812,0 -4.531,2.25 -1.719,2.25 -1.719,5.812 0,4.438 2.375,8 2.375,3.563 6.063,5.5 -1.25,2.563 -3.594,4.219 -2.344,1.656 -5.906,1.656 -2,0 -3.625,-0.718 -1.625,-0.719 -2.813,-2 -1.187,-1.282 -1.812,-3.063 -0.625,-1.781 -0.625,-3.844 0,-2.312 0.625,-4.187 0.625,-1.875 1.593,-3.25 0.969,-1.375 2.094,-2.281 1.125,-0.907 2.125,-1.407 1,-0.5 1.656,-1.031 0.657,-0.531 0.657,-1.594 0,-0.937 -0.532,-1.5 -0.531,-0.562 -1.593,-0.562 -0.938,0 -2.813,0.969 -1.875,0.968 -3.75,2.937 a 16.721,16.721 0 0 0 -1.791,2.257 22.436,22.436 0 0 0 -0.985,1.634 2.072,2.072 0 0 0 -0.501,0.446 2.587,2.587 0 0 0 -0.348,0.569 q -1.437,3.063 -3.281,5.782 -1.844,2.718 -3.969,5.218 -2.125,2.5 -4.375,4.782 -2.25,2.281 -4.437,4.468 0.25,-5.062 0.625,-9.531 0.375,-4.469 0.718,-7.844 0.344,-3.375 0.594,-5.406 0.25,-2.031 0.25,-2.219 0,-1 -0.687,-1.687 -0.688,-0.688 -1.688,-0.688 -0.875,0 -1.5,0.532 -0.625,0.531 -0.75,1.343 -2,10.063 -4.875,15.344 -2.875,5.281 -6.437,5.281 -2.813,0 -4.063,-1.937 -1.25,-1.938 -1.25,-5.375 0,-3.438 0.656,-6.313 0.657,-2.875 1.438,-4.937 0.781,-2.063 1.437,-3.156 0.657,-1.094 0.594,-1.032 0.375,-0.562 0.375,-1.25 0,-0.937 -0.656,-1.656 -0.656,-0.719 -1.719,-0.719 -1.25,0 -1.937,1.063 0,-0.063 -0.75,1.219 -0.75,1.281 -1.657,3.687 -0.566,1.504 -1.084,3.374 a 60.677,60.677 0 0 0 -0.22,0.822 2.269,2.269 0 0 0 -0.054,0.046 2.395,2.395 0 0 0 -0.548,0.727 q -1.937,3.875 -3.937,7.031 -2,3.156 -3.969,5.406 -1.969,2.25 -3.844,3.5 -1.875,1.25 -3.625,1.25 -1.062,0 -2.219,-0.375 -1.156,-0.375 -2.187,-1.5 -1.031,-1.125 -1.688,-3.156 -0.656,-2.031 -0.656,-5.344 0,-2.437 0.156,-5.343 0.157,-2.907 0.375,-5.5 0.219,-2.594 0.375,-4.469 0.157,-1.875 0.157,-2.25 0,-0.938 -0.625,-1.656 -0.625,-0.719 -1.563,-0.719 -1.062,0 -1.719,0.656 -0.656,0.656 -0.781,1.531 a 143.488,143.488 0 0 0 -0.937,10.6 2.635,2.635 0 0 0 -0.25,0.463 q -0.5,1.062 -1.313,2.656 -0.812,1.594 -1.875,3.313 -1.062,1.718 -2.375,3.437 -1.312,1.719 -2.75,3.125 -1.437,1.406 -2.937,2.25 -1.5,0.844 -3,0.844 -1.313,0 -2.125,-0.719 -0.813,-0.719 -1.219,-1.875 -0.406,-1.156 -0.563,-2.625 -0.156,-1.469 -0.156,-2.969 0,-2.625 0.281,-5.031 0.282,-2.406 0.282,-3.844 0,-1.75 -0.407,-3.25 -0.406,-1.5 -1.187,-2.625 -0.781,-1.125 -2,-1.781 -1.219,-0.656 -2.844,-0.656 -1.625,0 -3.469,0.969 -1.843,0.968 -3.656,3.156 -1.812,2.25 -3.5,4.812 -1.687,2.563 -3.187,5.157 -1.5,2.593 -2.813,5.062 -1.312,2.469 -2.312,4.594 l -0.063,-2.938 v -2.187 -2.938 -3.125 -2.687 q 3.313,-6.063 6.313,-12.469 3,-6.406 5.25,-13.156 2.25,-6.75 3.593,-13.844 1.344,-7.094 1.344,-14.469 0,-3.625 -0.5,-6.906 -0.5,-3.281 -1.625,-5.75 Q 96.625,24.875 94.813,23.438 93,22 90.375,22 q -3.062,0 -5.094,2.875 -2.031,2.875 -3.343,8.157 -1.313,5.281 -1.969,12.75 -0.656,7.468 -0.938,16.687 -0.281,9.219 -0.312,19.938 A 7195.015,7195.015 0 0 0 78.696,93.316 1.914,1.914 0 0 0 78.5,93.688 q -0.125,0.375 -0.844,1.844 -0.718,1.468 -2,3.437 -1.281,1.969 -3.093,4.188 -1.813,2.218 -4.188,4.093 -2.375,1.875 -5.25,3.094 -2.875,1.219 -6.25,1.219 -2.625,0 -4.531,-1.063 -1.906,-1.062 -3.156,-2.843 -1.25,-1.782 -1.875,-4.094 -0.625,-2.313 -0.625,-4.875 0,-2.688 0.718,-5.094 0.719,-2.406 1.907,-4.187 1.187,-1.782 2.781,-2.844 1.594,-1.063 3.344,-1.063 1.875,0 3.093,1.063 1.219,1.062 1.219,2.375 0,0.937 -0.219,1.531 -0.218,0.594 -0.5,1 -0.281,0.406 -0.5,0.781 -0.218,0.375 -0.218,0.875 0,1 0.656,1.688 0.656,0.687 1.719,0.687 0.687,0 1.375,-0.531 0.687,-0.531 1.218,-1.437 0.532,-0.907 0.875,-2.094 Q 64.5,90.25 64.5,88.875 64.5,87.438 63.844,86 63.188,84.563 62.031,83.375 60.875,82.188 59.188,81.469 57.5,80.75 55.438,80.75 q -2.75,0 -5.188,1.407 Q 47.813,83.563 45.969,86 44.125,88.438 43.063,91.719 42,95 42,98.75 q 0,3.875 1,7.063 1,3.187 2.938,5.531 1.937,2.344 4.687,3.625 2.75,1.281 6.313,1.281 4,0 7.406,-1.312 3.406,-1.313 6.156,-3.344 2.75,-2.031 4.875,-4.469 a 54.643,54.643 0 0 0 1.746,-2.103 z m 362.942,-9.147 q -0.438,-0.625 -0.438,-1.312 0,-1.25 1,-1.938 3.063,-2.062 5.375,-3.687 2.313,-1.625 4.25,-2.969 1.938,-1.344 3.656,-2.531 1.719,-1.188 3.625,-2.406 1.907,-1.219 4.125,-2.594 2.219,-1.375 5.157,-3.125 -6.188,-3.813 -11.063,-7.719 -4.875,-3.906 -8.312,-7.094 -3.438,-3.187 -5.344,-5.312 -1.906,-2.125 -2.156,-2.5 -0.438,-0.5 -0.438,-1.375 0,-0.938 0.688,-1.656 0.687,-0.719 1.687,-0.719 1.125,0 1.875,0.937 0.063,0.063 1.063,1.188 1,1.125 2.812,2.937 1.813,1.813 4.375,4.188 2.563,2.375 5.781,4.969 3.219,2.593 7,5.187 3.782,2.594 7.969,4.906 1.313,0.688 1.313,2.063 0,1.437 -1.188,2.125 -3.25,1.812 -5.781,3.312 -2.531,1.5 -4.688,2.907 -2.156,1.406 -4.156,2.75 -2,1.343 -4.219,2.875 -2.218,1.531 -4.781,3.312 -2.562,1.781 -5.812,4.031 -0.625,0.438 -1.313,0.438 -0.562,0 -1.156,-0.344 -0.594,-0.344 -0.906,-0.844 z M 83.438,84.75 Q 86.063,79 88.219,73.532 90.375,68.063 91.906,62.625 93.438,57.188 94.313,51.594 95.188,46 95.188,39.938 q 0,-1 -0.094,-3.188 Q 95,34.563 94.531,32.313 94.063,30.063 93.094,28.375 92.125,26.688 90.375,26.688 89,26.688 88,28.532 q -1,1.843 -1.75,5 -0.75,3.156 -1.25,7.343 -0.5,4.188 -0.812,8.875 -0.313,4.688 -0.469,9.625 -0.156,4.938 -0.219,9.594 -0.062,4.656 -0.062,8.719 z m 88.25,42.5 q -2.813,4.063 -5.157,8.563 -2.343,4.5 -4.031,8.937 -1.687,4.438 -2.625,8.5 -0.937,4.063 -0.937,7.25 0,3.25 1.062,5.094 1.063,1.844 3.375,1.844 2.063,0 3.656,-2.031 1.594,-2.032 2.688,-5.782 1.094,-3.75 1.656,-9.093 0.563,-5.344 0.563,-11.969 0,-2.688 -0.094,-5.438 -0.094,-2.75 -0.156,-5.875 z m 79.75,0 q -2.813,4.063 -5.157,8.563 -2.343,4.5 -4.031,8.937 -1.687,4.438 -2.625,8.5 -0.937,4.063 -0.937,7.25 0,3.25 1.062,5.094 1.063,1.844 3.375,1.844 2.063,0 3.656,-2.031 1.594,-2.032 2.688,-5.782 1.094,-3.75 1.656,-9.093 0.563,-5.344 0.563,-11.969 0,-2.688 -0.094,-5.438 -0.094,-2.75 -0.156,-5.875 z m 175,-58 -32.75,0.688 q -1,0.062 -1.688,-0.625 -0.687,-0.688 -0.687,-1.625 0,-1 0.625,-1.688 0.625,-0.687 1.625,-0.75 l 32.75,-0.75 q 0.937,-0.062 1.656,0.657 0.719,0.718 0.719,1.656 0,1 -0.594,1.719 -0.594,0.718 -1.656,0.718 z m -1,15.5 -31.938,0.5 q -1,0 -1.687,-0.687 -0.688,-0.688 -0.688,-1.625 0,-0.938 0.656,-1.688 0.657,-0.75 1.657,-0.75 l 31.875,-0.437 q 1,0 1.687,0.656 0.688,0.656 0.75,1.656 0,1 -0.687,1.688 -0.688,0.687 -1.625,0.687 z M 136.75,64.063 q 0,2.375 -1.656,4.031 -1.656,1.656 -4.031,1.656 -2.375,0 -4.032,-1.656 -1.656,-1.656 -1.656,-4.031 0,-1.188 0.438,-2.219 0.437,-1.031 1.218,-1.812 0.782,-0.782 1.813,-1.219 1.031,-0.438 2.219,-0.438 1.187,0 2.218,0.438 1.032,0.437 1.813,1.219 0.781,0.781 1.219,1.812 0.437,1.031 0.437,2.219 z m 235.438,0 q 0,2.375 -1.657,4.031 -1.656,1.656 -4.031,1.656 -2.375,0 -4.031,-1.656 -1.656,-1.656 -1.656,-4.031 0,-1.188 0.437,-2.219 0.438,-1.031 1.219,-1.812 0.781,-0.782 1.812,-1.219 1.032,-0.438 2.219,-0.438 1.188,0 2.219,0.438 1.031,0.437 1.812,1.219 0.782,0.781 1.219,1.812 0.438,1.031 0.438,2.219 z M 210.875,90.5 q 0,1.188 0.313,2.5 0.312,1.313 0.968,2.594 0.657,1.281 1.625,2.438 0.969,1.156 2.282,1.968 0.187,-1.312 0.187,-2.562 0,-1.688 -0.25,-3.438 -0.25,-1.75 -0.719,-3.218 -0.468,-1.469 -1.156,-2.375 -0.687,-0.907 -1.625,-0.907 -0.375,0 -1,0.563 -0.625,0.562 -0.625,2.437 z M 133.25,64.063 q 0,-0.875 -0.656,-1.531 -0.656,-0.657 -1.531,-0.657 -0.875,0 -1.5,0.657 -0.625,0.656 -0.625,1.531 0,0.875 0.625,1.5 0.625,0.625 1.5,0.625 0.875,0 1.531,-0.625 0.656,-0.625 0.656,-1.5 z m 235.438,0 q 0,-0.875 -0.657,-1.531 -0.656,-0.657 -1.531,-0.657 -0.875,0 -1.5,0.657 -0.625,0.656 -0.625,1.531 0,0.875 0.625,1.5 0.625,0.625 1.5,0.625 0.875,0 1.531,-0.625 0.657,-0.625 0.657,-1.5 z"
       id="path1" />
  </g>
</svg>
